<svg width="60" height="60" viewBox="0 0 60 60" fill="none" xmlns="http://www.w3.org/2000/svg">
<path fill-rule="evenodd" clip-rule="evenodd" d="M30 58.125C44.4975 58.125 56.25 46.3725 56.25 31.875C56.25 17.3775 44.4975 5.625 30 5.625C15.5025 5.625 3.75 17.3775 3.75 31.875C3.75 36.5829 4.98937 41.0013 7.15964 44.8218L3.75 58.125L17.4654 54.9446C21.1901 56.9727 25.4605 58.125 30 58.125ZM30 54.0865C42.2671 54.0865 52.2115 44.1421 52.2115 31.875C52.2115 19.6079 42.2671 9.66346 30 9.66346C17.7329 9.66346 7.78846 19.6079 7.78846 31.875C7.78846 36.6114 9.27094 41.0015 11.7972 44.6067L9.80769 52.0673L17.3999 50.1693C20.9801 52.6398 25.3211 54.0865 30 54.0865Z" fill="#BFC8D0"/>
<path d="M52.5 30C52.5 42.4264 42.4264 52.5 30 52.5C25.2603 52.5 20.8629 51.0345 17.2362 48.5319L9.54545 50.4545L11.5608 42.897C9.00173 39.245 7.5 34.7979 7.5 30C7.5 17.5736 17.5736 7.5 30 7.5C42.4264 7.5 52.5 17.5736 52.5 30Z" fill="url(#paint0_linear_831_1180)"/>
<path fill-rule="evenodd" clip-rule="evenodd" d="M30 56.25C44.4975 56.25 56.25 44.4975 56.25 30C56.25 15.5025 44.4975 3.75 30 3.75C15.5025 3.75 3.75 15.5025 3.75 30C3.75 34.7079 4.98937 39.1263 7.15964 42.9468L3.75 56.25L17.4654 53.0696C21.1901 55.0977 25.4605 56.25 30 56.25ZM30 52.2115C42.2671 52.2115 52.2115 42.2671 52.2115 30C52.2115 17.7329 42.2671 7.78846 30 7.78846C17.7329 7.78846 7.78846 17.7329 7.78846 30C7.78846 34.7364 9.27094 39.1265 11.7972 42.7317L9.80769 50.1923L17.3999 48.2943C20.9801 50.7648 25.3211 52.2115 30 52.2115Z" fill="white"/>
<path d="M23.4375 17.8111C22.8134 16.5575 21.856 16.6685 20.8888 16.6685C19.1602 16.6685 16.4648 18.7391 16.4648 22.5925C16.4648 25.7506 17.8565 29.2076 22.5458 34.3791C27.0713 39.3699 33.0176 41.9516 37.9541 41.8637C42.8906 41.7758 43.9063 37.5278 43.9063 36.0932C43.9063 35.4573 43.5117 35.1401 43.2399 35.0539C41.5576 34.2465 38.455 32.7422 37.749 32.4596C37.0431 32.177 36.6745 32.5592 36.4453 32.7672C35.8051 33.3773 34.5361 35.1753 34.1016 35.5797C33.6671 35.9841 33.0193 35.7795 32.7497 35.6266C31.7577 35.2285 29.068 34.0321 26.924 31.9538C24.2725 29.3834 24.1169 28.4991 23.6173 27.7119C23.2177 27.0822 23.5109 26.6958 23.6573 26.527C24.2286 25.8678 25.0174 24.8501 25.3711 24.3443C25.7249 23.8386 25.4441 23.0707 25.2755 22.5925C24.5508 20.5357 23.9368 18.814 23.4375 17.8111Z" fill="white"/>
<defs>
<linearGradient id="paint0_linear_831_1180" x1="49.6875" y1="13.125" x2="7.5" y2="52.5" gradientUnits="userSpaceOnUse">
<stop stop-color="#5BD066"/>
<stop offset="1" stop-color="#27B43E"/>
</linearGradient>
</defs>
</svg>
